<svg width="540" height="440" viewBox="0 0 540 440" fill="none" xmlns="http://www.w3.org/2000/svg">
<g clip-path="url(#clip0)">
<path d="M270 439.846C419.117 439.846 540 415.07 540 384.506C540 353.943 419.117 329.166 270 329.166C120.883 329.166 0 353.943 0 384.506C0 415.07 120.883 439.846 270 439.846Z" fill="#F9F9F9"/>
<path fill-rule="evenodd" clip-rule="evenodd" d="M17.5783 171.433C-1.97118 268.072 82.8119 295.652 155.238 281.567C227.663 267.483 249.678 270.087 348.854 285.232C448.03 300.376 506.802 261.9 524.473 188.583C542.143 115.267 482.669 35.1177 340.332 5.3702C197.995 -24.3773 37.1278 74.7944 17.5783 171.433Z" fill="#F9F9F9"/>
<path d="M79.4739 305.466L77.5703 350.929" stroke="#C9D1F1" stroke-width="0.99"/>
<path d="M120.313 299.388L102.149 342.609" stroke="#C4D3E9" stroke-width="1.98"/>
<path d="M52.624 298.515L87.5874 343.23" stroke="#C4D3E9" stroke-width="1.98"/>
<path fill-rule="evenodd" clip-rule="evenodd" d="M56.8271 335.386H129.783V350.854C129.783 370.992 113.451 387.318 93.305 387.318C73.1588 387.318 56.8271 370.992 56.8271 350.854V335.386Z" fill="#B6C6DD"/>
<path d="M94.0742 268.653V341.911" stroke="#C4D3E9" stroke-width="1.98"/>
<path fill-rule="evenodd" clip-rule="evenodd" d="M94.0386 332.619C95.2637 325.11 94.6843 321.356 92.3005 321.356C88.7248 321.356 89.8356 325.643 86.197 325.643C82.5584 325.643 77.9093 324.367 76.4155 328.789C74.9217 333.211 78.6168 343.599 76.4155 345.707C74.2142 347.815 66.7682 349.035 68.6464 357.493C70.5246 365.951 69.4546 379.031 73.3511 375.006C77.2475 370.98 84.9829 358.676 90.4529 358.676C95.9229 358.676 98.5448 357.467 100.42 353.011C102.296 348.556 108.34 350.786 106.83 342.927C105.32 335.067 112.326 331.131 108.218 330.241C104.111 329.351 107.589 324.528 102.833 325.643C99.6624 326.386 96.7309 328.712 94.0386 332.619Z" fill="#D4E1F3"/>
<path d="M94.0387 332.62C86.6752 344.208 79.3117 358.587 71.9482 375.757" stroke="#F9F9F9" stroke-width="0.99" stroke-linecap="round"/>
<path d="M90.4824 338.487V326.066" stroke="#F9F9F9" stroke-width="0.99" stroke-linecap="round"/>
<path d="M90.4827 330.775L84.6914 327.4" stroke="#F9F9F9" stroke-width="0.99" stroke-linecap="round"/>
<path d="M89.6367 339.711L104.442 330.775" stroke="#F9F9F9" stroke-width="0.99" stroke-linecap="round"/>
<path d="M99.8574 333.591L104.442 334.628" stroke="#F9F9F9" stroke-width="0.99" stroke-linecap="round"/>
<path d="M87.587 343.23L77.7764 331.867" stroke="#F9F9F9" stroke-width="0.99" stroke-linecap="round"/>
<path d="M88.3477 341.911L103.047 345.285" stroke="#F9F9F9" stroke-width="0.99" stroke-linecap="round"/>
<path d="M85.3701 347.67L94.0386 355.954" stroke="#F9F9F9" stroke-width="0.99" stroke-linecap="round"/>
<path d="M85.3702 347.67L77.7764 345.285" stroke="#F9F9F9" stroke-width="0.99" stroke-linecap="round"/>
<path d="M81.1639 355.439H69.1689" stroke="#F9F9F9" stroke-width="0.99" stroke-linecap="round"/>
<path d="M79.0234 360.051L80.1776 364.786" stroke="#F9F9F9" stroke-width="0.99" stroke-linecap="round"/>
<path fill-rule="evenodd" clip-rule="evenodd" d="M54.1556 293.413C59.9366 284.476 62.0088 278.978 60.3722 276.919C57.9173 273.83 55.4118 280.662 52.227 280.095C49.0423 279.527 43.2061 277.83 43.2061 287.04C38.9001 287.071 36.14 288.536 34.9256 291.434C33.1041 295.783 27.8761 291.913 27.2333 296.513C26.5905 301.114 22.5033 297.515 20.7141 308.739C19.5213 316.222 16.5492 321.623 11.7979 324.944C25.868 325.788 32.9031 323.937 32.9031 319.388C32.9031 312.566 39.3869 320.996 40.8129 314.867C42.2389 308.739 47.123 315.769 50.3252 310.755C54.5242 312.37 57.651 309.554 59.7056 302.306C68.5119 302.501 73.4264 300.325 74.449 295.778C75.983 288.957 70.2146 288.957 66.1674 289.274C63.4692 289.485 59.4653 290.865 54.1556 293.413Z" fill="#D4E1F3"/>
<path d="M54.1554 293.414C50.7561 296.107 46.4242 298.898 41.1596 301.787C33.2627 306.12 30.3149 310.182 24.8871 315.769C19.4594 321.356 17.0991 323.113 12.4092 324.59" stroke="#F9F9F9" stroke-width="0.99" stroke-linecap="round"/>
<path d="M49.6387 296.554L54.1554 281.261" stroke="#F9F9F9" stroke-width="0.99" stroke-linecap="round"/>
<path d="M47.8906 297.898L58.8103 301.392" stroke="#F9F9F9" stroke-width="0.99" stroke-linecap="round"/>
<path d="M46.0744 298.515L34.8262 293.414" stroke="#F9F9F9" stroke-width="0.99" stroke-linecap="round"/>
<path d="M42.3525 300.852V311.768" stroke="#F9F9F9" stroke-width="0.99" stroke-linecap="round"/>
<path d="M38.2272 303.479L25.5635 300.176" stroke="#F9F9F9" stroke-width="0.99" stroke-linecap="round"/>
<path d="M32.8828 307.354L33.8843 315.903" stroke="#F9F9F9" stroke-width="0.99" stroke-linecap="round"/>
<path d="M29.703 310.459L21.2031 307.87" stroke="#F9F9F9" stroke-width="0.99" stroke-linecap="round"/>
<path d="M24.8869 315.769L22.0273 322.998" stroke="#F9F9F9" stroke-width="0.99" stroke-linecap="round"/>
<path fill-rule="evenodd" clip-rule="evenodd" d="M97.4011 256.195C99.3466 250.749 99.1176 247.608 96.7142 246.77C93.109 245.514 91.0117 251.967 89.1732 253.701C87.3347 255.434 82.6455 255.613 83.4608 262.612C79.7081 264.642 78.4779 268.572 79.7703 274.401C81.7088 283.145 77.0401 281.75 79.7703 286.825C81.5904 290.209 81.192 294.482 78.5752 299.645C89.1955 296.156 95.2418 291.883 96.7142 286.825C98.9227 279.238 104.219 280.632 104.219 271.622C104.219 262.612 114.183 267.862 114.183 258.055C114.183 248.248 98.4232 261.684 97.4011 261.016C96.7197 260.571 96.7197 258.964 97.4011 256.195Z" fill="#D4E1F3"/>
<path d="M97.4012 261.016C94.2802 263.347 92.1713 267.742 91.0745 274.201C89.4292 283.888 85.7552 291.266 78.8281 299.388" stroke="#F9F9F9" stroke-width="0.99" stroke-linecap="round"/>
<path d="M93.8733 264.973L92.3799 252.415" stroke="#F9F9F9" stroke-width="0.99" stroke-linecap="round"/>
<path d="M97.4014 261.016C103.76 261.618 107.705 262.29 109.236 263.032" stroke="#F9F9F9" stroke-width="0.99" stroke-linecap="round"/>
<path d="M91.6807 271.381H101.727" stroke="#F9F9F9" stroke-width="0.99" stroke-linecap="round"/>
<path d="M91.6805 270.367L84.6104 263.032" stroke="#F9F9F9" stroke-width="0.99" stroke-linecap="round"/>
<path d="M90.7468 274.827L81.0029 273.127" stroke="#F9F9F9" stroke-width="0.99" stroke-linecap="round"/>
<path d="M90.7461 274.828L97.4007 277.749" stroke="#F9F9F9" stroke-width="0.99" stroke-linecap="round"/>
<path d="M89.1338 281.619L93.1266 288.54" stroke="#F9F9F9" stroke-width="0.99" stroke-linecap="round"/>
<path d="M87.9883 284.633L81.4922 286.932" stroke="#F9F9F9" stroke-width="0.99" stroke-linecap="round"/>
<path d="M84.1934 292.057L85.2005 296.024" stroke="#F9F9F9" stroke-width="0.99" stroke-linecap="round"/>
<path fill-rule="evenodd" clip-rule="evenodd" d="M78.4023 304.467C77.6241 302.288 77.7157 301.032 78.677 300.697C80.1191 300.194 80.958 302.775 81.6934 303.469C82.4288 304.162 84.3045 304.234 83.9784 307.033C85.4795 307.846 85.9715 309.417 85.4546 311.749C84.6792 315.247 86.5466 314.689 85.4546 316.719C84.7265 318.072 84.8859 319.781 85.9326 321.847C81.6845 320.451 79.266 318.742 78.677 316.719C77.7936 313.684 75.675 314.241 75.675 310.637C75.675 307.033 71.6895 309.134 71.6895 305.211C71.6895 301.288 77.9934 306.662 78.4023 306.395C78.6748 306.217 78.6748 305.574 78.4023 304.467Z" fill="#D4E1F3"/>
<path d="M78.4018 306.395C79.6502 307.328 80.4938 309.086 80.9325 311.669C81.5906 315.544 83.0602 318.495 85.8311 321.744" stroke="#F9F9F9" stroke-width="0.5" stroke-linecap="round"/>
<path d="M79.8128 307.978L80.4102 302.955" stroke="#F9F9F9" stroke-width="0.5" stroke-linecap="round"/>
<path d="M78.4023 306.395C75.8588 306.636 74.2808 306.904 73.6685 307.202" stroke="#F9F9F9" stroke-width="0.5" stroke-linecap="round"/>
<path d="M80.6904 310.541H76.6718" stroke="#F9F9F9" stroke-width="0.5" stroke-linecap="round"/>
<path d="M80.6905 310.136L83.5186 307.202" stroke="#F9F9F9" stroke-width="0.5" stroke-linecap="round"/>
<path d="M81.0644 311.919L84.9619 311.239" stroke="#F9F9F9" stroke-width="0.5" stroke-linecap="round"/>
<path d="M81.0645 311.919L78.4026 313.088" stroke="#F9F9F9" stroke-width="0.5" stroke-linecap="round"/>
<path d="M81.709 314.636L80.1119 317.404" stroke="#F9F9F9" stroke-width="0.5" stroke-linecap="round"/>
<path d="M82.1672 315.842L84.7656 316.761" stroke="#F9F9F9" stroke-width="0.5" stroke-linecap="round"/>
<path d="M83.6855 318.812L83.2827 320.398" stroke="#F9F9F9" stroke-width="0.5" stroke-linecap="round"/>
<path fill-rule="evenodd" clip-rule="evenodd" d="M123.862 285.783C121.123 277.018 121.123 271.88 123.862 270.367C127.97 268.098 128.384 276.463 131.94 276.288C135.496 276.113 139.896 275.558 139.896 277.88C139.896 280.202 141.704 283.968 145.364 283.968C149.023 283.968 149.11 286.557 149.066 291.29C149.023 296.024 155.212 298.089 155.212 301.441C155.212 304.792 150.113 305.667 153.941 312.065C157.769 318.463 157.622 320.596 156.417 325.142C155.212 329.687 153.167 338.758 156.417 345.285C146.311 343.221 140.447 339.874 138.824 335.243C136.391 328.297 129.2 333.672 129.2 326.066C129.2 318.46 119.495 323.917 119.495 314.858C119.495 305.799 110.314 309.629 108.103 303.598C105.893 297.567 114.109 297.227 111.893 293.443C109.677 289.658 100.782 285.392 104.443 277.88C106.883 272.871 113.356 275.506 123.862 285.783Z" fill="#D4E1F3"/>
<path d="M123.862 285.783C133.462 299.322 139.05 308.22 140.627 312.48C142.993 318.868 149.581 338.758 156.417 345.285" stroke="#F9F9F9" stroke-width="0.99" stroke-linecap="round"/>
<path d="M131.006 295.994L114.184 294.788" stroke="#F9F9F9" stroke-width="0.99" stroke-linecap="round"/>
<path d="M129.074 293.221L127.73 277.748" stroke="#F9F9F9" stroke-width="0.99" stroke-linecap="round"/>
<path d="M134.874 301.583L146.327 287.59" stroke="#F9F9F9" stroke-width="0.99" stroke-linecap="round"/>
<path d="M133.178 299.388L118.457 306.643" stroke="#F9F9F9" stroke-width="0.99" stroke-linecap="round"/>
<path d="M136.893 305.447L124.7 319.295" stroke="#F9F9F9" stroke-width="0.99" stroke-linecap="round"/>
<path d="M137.59 306.643L151.615 301.989" stroke="#F9F9F9" stroke-width="0.99" stroke-linecap="round"/>
<path d="M141.055 313.456L132.678 328.067" stroke="#F9F9F9" stroke-width="0.99" stroke-linecap="round"/>
<path d="M142.524 317.403L154.971 320.762" stroke="#F9F9F9" stroke-width="0.99" stroke-linecap="round"/>
<path d="M145.407 325.564L143.026 338.189" stroke="#F9F9F9" stroke-width="0.99" stroke-linecap="round"/>
<path d="M148.298 331.877L153.297 333.615" stroke="#F9F9F9" stroke-width="0.99" stroke-linecap="round"/>
<path fill-rule="evenodd" clip-rule="evenodd" d="M252.433 233.777L272.173 385.052C272.346 386.377 271.412 387.59 270.087 387.763C269.983 387.777 269.879 387.783 269.774 387.783C268.183 387.783 266.824 386.636 266.558 385.068L240.862 233.777H252.433Z" fill="#D4E1F3"/>
<path fill-rule="evenodd" clip-rule="evenodd" d="M240.862 233.777L242.275 242.061H253.52L252.433 233.777H240.862Z" fill="#B6C6DD"/>
<path fill-rule="evenodd" clip-rule="evenodd" d="M286.35 357.958C295.91 359.99 304.421 358.061 305.359 353.65C306.297 349.239 299.307 344.017 289.746 341.985C280.186 339.954 272.299 342.279 271.361 346.69C270.423 351.101 276.79 355.927 286.35 357.958Z" fill="#070431"/>
<path fill-rule="evenodd" clip-rule="evenodd" d="M327.868 348.567C337.831 346.268 345.242 340.858 344.227 336.465C343.212 332.071 334.156 330.356 324.193 332.656C314.231 334.955 307.741 340.469 308.756 344.863C309.771 349.257 317.906 350.866 327.868 348.567Z" fill="#070431"/>
<path d="M317.003 329.942L333.492 324.903L336.573 346.194L320.084 351.232L317.003 329.942Z" fill="#E6C1A9"/>
<path d="M317.268 331.768L333.92 327.858L334.989 335.25C328.013 336.244 322.604 338.526 318.762 342.097L317.268 331.768Z" fill="#DEB093"/>
<path d="M335.926 339.17L318.297 343.25C319.97 354.168 318.305 361.596 313.3 365.533C305.794 371.439 294.3 372.294 296.193 383.449L297.042 386.883L330.418 376.685L334.669 366.148L337.253 374.596L343.014 372.836C343.64 365.824 343.055 359.381 341.258 353.507C339.462 347.633 337.684 342.854 335.926 339.17Z" fill="#DA513E"/>
<path fill-rule="evenodd" clip-rule="evenodd" d="M343.211 369.776C343.182 370.531 343.137 371.293 343.078 372.062L343.014 372.834L337.253 374.594L336.415 371.853L343.211 369.776ZM331.796 373.265L330.417 376.683L297.039 386.883L296.35 384.097L331.796 373.265Z" fill="#A42422"/>
<path fill-rule="evenodd" clip-rule="evenodd" d="M326.341 341.39L331.588 340.174L334.465 354.516L329.38 356.069L326.341 341.39Z" fill="#A42422"/>
<path d="M369.138 227.558L300.584 231.421C293.159 231.839 286.518 236.177 283.152 242.806C279.675 249.654 279.107 257.615 281.578 264.886L308.756 344.863C319.594 334.568 331.35 331.54 344.024 335.78L319.132 265.612L369.138 227.558Z" fill="#3868B2"/>
<path opacity="0.5" d="M332.684 333.589L308.65 263.336" stroke="white"/>
<path d="M280.997 337.846H298.241L294.959 359.104H277.715L280.997 337.846Z" fill="#E6C1A9"/>
<path d="M298.24 337.846L296.181 351.184C292.169 348.829 287.01 346.841 280.705 345.218L279.89 345.011L280.902 338.449L287.659 337.845L298.24 337.846Z" fill="#DEB093"/>
<path d="M296.397 352.201L278.343 350.951C276.749 361.88 272.984 368.496 267.046 370.799C258.139 374.253 246.897 371.712 245.444 382.932L245.251 386.463H280.154L287.302 377.63V386.463H293.326C295.977 379.942 297.302 373.61 297.302 367.468C297.302 361.326 297 356.237 296.397 352.201Z" fill="#DA513E"/>
<path fill-rule="evenodd" clip-rule="evenodd" d="M294.41 383.598C294.16 384.311 293.895 385.027 293.613 385.745L293.326 386.463H287.302L287.302 383.598L294.41 383.598ZM282.472 383.598L280.154 386.463H245.251L245.407 383.598H282.472Z" fill="#A42422"/>
<path fill-rule="evenodd" clip-rule="evenodd" d="M286.577 351.521L291.952 351.893L290.507 366.447H285.189L286.577 351.521Z" fill="#A42422"/>
<path d="M389.418 223.929C396.788 246.934 394.959 261.503 383.932 267.638C372.904 273.772 353.704 276.746 326.331 276.559L305.415 353.429C302.21 350.015 296.91 347.425 289.512 345.66C282.115 343.895 276.118 344.054 271.52 346.137L290.025 261.5C291.618 254.212 295.732 247.72 301.643 243.166C307.646 238.54 314.721 235.506 322.211 234.345L389.418 223.929Z" fill="#5B7FC0"/>
<path d="M400.869 206.599C390.85 206.949 382.631 204.427 382.51 200.967C382.389 197.506 390.413 194.417 400.431 194.067C410.45 193.718 418.669 196.239 418.79 199.7C418.911 203.161 410.887 206.25 400.869 206.599Z" fill="#5F000C"/>
<path d="M359.259 143.06C346.672 140.962 335.996 141.409 327.229 144.4C314.08 148.886 306.056 167.649 301.999 185.9H323.92L323.426 230.288L391.55 227.557L389.261 202.816L388.944 202.852C387.865 202.976 386.868 202.263 386.638 201.202C386.405 200.126 387.025 199.049 388.072 198.711C399.939 194.873 410.166 194.93 418.755 198.881C412.161 168.629 405.717 151.277 399.424 146.827C393.13 142.377 379.742 141.121 359.259 143.06Z" fill="#DA513E"/>
<path d="M386.465 202.518L380.033 179.489" stroke="#B8332A" stroke-width="2" stroke-linecap="round"/>
<path d="M382.495 188.188L376.721 183.971" stroke="#B8332A" stroke-width="2" stroke-linecap="round"/>
<path fill-rule="evenodd" clip-rule="evenodd" d="M338.528 105.721H333.884C333.507 96.4753 337.21 91.4313 344.995 90.5889C351.089 84.9055 358.481 83.1183 367.172 85.2273C380.208 88.3908 381.656 101.067 381.656 108.25C381.656 115.433 382.239 123.125 386.789 126.927C391.339 130.729 394.135 137.958 392.782 143.973C385.365 142.72 378.556 142.247 372.356 142.553H345.728C342.277 142.542 338.774 142.503 335.221 142.436C331.192 137.735 330.454 132.603 333.007 127.041C335.561 121.479 337.401 114.373 338.528 105.721Z" fill="#98705B"/>
<path d="M343.514 105.721L342.863 118.153C342.716 120.957 343.189 123.758 344.249 126.359C345.27 128.866 347.333 130.804 349.899 131.668L349.983 131.696V143.284C351.544 145.875 353.982 147.171 357.297 147.171C360.612 147.171 364.363 145.875 368.549 143.284L368.134 119.874C369.893 119.794 371.389 118.992 372.621 117.466C374.468 115.178 374.451 111.61 372.398 110.13C371.028 109.143 369.292 109.636 367.189 111.61C361.744 111.005 359.021 108.37 359.021 103.703L357.726 105.721H343.514Z" fill="#E6C1A9"/>
<path d="M357.297 131.488L350.017 141.013C350.002 140.849 349.992 140.683 349.987 140.516L349.983 140.264V131.697L357.297 131.488Z" fill="#DEB093"/>
<path fill-rule="evenodd" clip-rule="evenodd" d="M368.924 119.33C369.927 119.33 370.834 119.736 371.491 120.393C372.148 121.05 372.554 121.957 372.554 122.959C372.554 123.961 372.148 124.868 371.491 125.525C370.834 126.182 369.927 126.588 368.924 126.588C367.922 126.588 367.014 126.182 366.357 125.525C365.7 124.868 365.294 123.961 365.294 122.959C365.294 121.957 365.7 121.05 366.357 120.393C367.014 119.736 367.922 119.33 368.924 119.33Z" stroke="#DA513E"/>
<path d="M309.363 186.836L297.64 139.843L300.083 130.448C300.213 129.949 300.336 129.448 300.452 128.945L302.747 119.009C302.896 118.363 302.493 117.718 301.847 117.568C301.571 117.505 301.282 117.541 301.03 117.669C299.546 118.427 298.375 119.682 297.721 121.215L295.863 125.569L291.959 106.311C291.795 105.502 291.038 104.955 290.218 105.053C289.404 105.151 288.808 105.867 288.86 106.685L289.83 122.048L285.152 105.955C284.897 105.077 283.986 104.566 283.104 104.805C282.206 105.048 281.647 105.941 281.82 106.854L284.994 123.671L279.853 109.006C279.61 108.315 278.857 107.946 278.162 108.179C277.443 108.42 277.011 109.153 277.148 109.898L279.932 124.983L276.438 116.486C276.205 115.92 275.577 115.629 274.995 115.817C274.417 116.003 274.086 116.609 274.242 117.196L279.21 135.874C280.086 139.168 281.587 142.263 283.63 144.99L288.602 201.228C289.068 206.496 291.99 211.237 296.488 214.021C300.857 216.725 306.39 216.69 310.725 213.931L329.59 201.922L315.095 182.47L309.363 186.836Z" fill="#E6C1A9"/>
<path d="M295.86 125.57C291.157 128.11 288.819 132.294 288.844 138.123" stroke="#DEB093" stroke-width="2" stroke-linecap="round"/>
<path d="M279.827 127.019C283.716 123.754 288.04 122.251 292.799 122.509" stroke="#DEB093" stroke-width="2" stroke-linecap="round"/>
<path d="M309.366 186.836L312.287 197.929" stroke="#87615E" stroke-width="1.68" stroke-linecap="round"/>
<path fill-rule="evenodd" clip-rule="evenodd" d="M384.807 220.3H270.454C270.454 224.308 273.704 227.558 277.714 227.558H377.546C381.556 227.558 384.807 224.308 384.807 220.3Z" fill="#B9C0C3"/>
<path fill-rule="evenodd" clip-rule="evenodd" d="M384.807 220.3H333.076C333.076 224.308 336.326 227.558 340.336 227.558H377.546C381.556 227.558 384.807 224.308 384.807 220.3Z" fill="#ADB5B8"/>
<path fill-rule="evenodd" clip-rule="evenodd" d="M337.721 218.335L325.593 167.318C325.204 165.682 323.743 164.528 322.061 164.528H253.829C251.825 164.528 250.199 166.153 250.199 168.157C250.199 168.426 250.229 168.695 250.289 168.958L261.837 219.975C262.212 221.629 263.682 222.803 265.378 222.803H334.189C336.194 222.803 337.819 221.178 337.819 219.174C337.819 218.891 337.786 218.61 337.721 218.335Z" fill="#B9C0C3"/>
<path d="M335.906 218.335L323.778 167.318C323.389 165.682 321.927 164.528 320.246 164.528H252.014C250.009 164.528 248.384 166.153 248.384 168.157C248.384 168.426 248.414 168.695 248.473 168.958L260.022 219.975C260.396 221.629 261.866 222.803 263.563 222.803H332.374C334.379 222.803 336.004 221.178 336.004 219.174C336.004 218.891 335.971 218.61 335.906 218.335Z" fill="#EBEBEB"/>
<path d="M291.916 200.475C289.592 201.414 286.567 199.35 285.159 195.866C283.75 192.382 284.492 188.796 286.816 187.858C289.14 186.919 292.165 188.983 293.573 192.467C294.982 195.952 294.239 199.537 291.916 200.475Z" fill="white"/>
<path d="M388.011 198.712L388.718 202.861L346.179 203.134L332.684 197.88L337.807 218.873L400.245 225.349C404.838 225.825 409.407 224.252 412.732 221.05C415.972 217.93 417.28 213.307 416.156 208.953L413.033 196.867C409.095 195.569 404.968 195.199 400.65 195.758C396.333 196.317 392.12 197.302 388.011 198.712Z" fill="#E6C1A9"/>
<path d="M400.649 195.758C404.779 195.224 408.735 195.538 412.518 196.703L413.033 196.867L414.65 203.125C408.976 198.961 400.374 197.673 388.845 199.261L388.12 199.363L388.01 198.712C391.845 197.396 395.771 196.45 399.787 195.876L400.649 195.758Z" fill="#DEB093"/>
<path d="M345.728 142.553C347.294 149.376 351.15 152.922 357.297 153.19C363.444 153.459 368.464 149.913 372.356 142.553H345.728Z" fill="#E6C1A9"/>
<path d="M388.28 202.518H402.88" stroke="#DEB093" stroke-width="2" stroke-linecap="round"/>
<path opacity="0.5" d="M298.797 348.475L320.797 266.319C353.381 266.713 372.195 264.109 377.24 258.508C382.284 252.906 382.284 242.406 377.24 227.007" stroke="white"/>
<path fill-rule="evenodd" clip-rule="evenodd" d="M384.29 233.777L373.466 385.036C373.365 386.449 374.428 387.676 375.841 387.777C375.902 387.781 375.963 387.783 376.024 387.783C377.593 387.783 378.91 386.604 379.083 385.046L395.861 233.777H384.29Z" fill="#C4D3E9"/>
<path fill-rule="evenodd" clip-rule="evenodd" d="M395.861 233.777L394.94 242.072H383.695L384.289 233.777H395.861Z" fill="#B6C6DD"/>
<path fill-rule="evenodd" clip-rule="evenodd" d="M443.021 233.777L462.761 385.052C462.933 386.377 462 387.59 460.675 387.763C460.571 387.777 460.466 387.783 460.362 387.783C458.771 387.783 457.412 386.636 457.146 385.068L431.45 233.777H443.021Z" fill="#C4D3E9"/>
<path fill-rule="evenodd" clip-rule="evenodd" d="M431.45 233.777L432.863 242.061H444.107L443.021 233.777H431.45Z" fill="#B6C6DD"/>
<path fill-rule="evenodd" clip-rule="evenodd" d="M193.701 233.777L182.877 385.036C182.776 386.449 183.839 387.676 185.252 387.777C185.313 387.781 185.374 387.783 185.435 387.783C187.004 387.783 188.321 386.604 188.494 385.046L205.272 233.777H193.701Z" fill="#D4E1F3"/>
<path fill-rule="evenodd" clip-rule="evenodd" d="M205.272 233.777L204.351 242.072H193.106L193.701 233.777H205.272Z" fill="#B6C6DD"/>
<path fill-rule="evenodd" clip-rule="evenodd" d="M171.53 226.65H461.95C463.955 226.65 465.58 228.275 465.58 230.279V232.094C465.58 234.098 463.955 235.723 461.95 235.723H171.53C169.525 235.723 167.899 234.098 167.899 232.094V230.279C167.899 228.275 169.525 226.65 171.53 226.65Z" fill="#D4E1F3"/>
<path fill-rule="evenodd" clip-rule="evenodd" d="M379.361 226.65H461.95C463.954 226.65 465.58 228.275 465.58 230.279V232.094C465.58 234.098 463.954 235.723 461.95 235.723H379.361V226.65Z" fill="#C4D3E9"/>
<path fill-rule="evenodd" clip-rule="evenodd" d="M103.462 38.103H261.364C263.369 38.103 264.994 39.7277 264.994 41.7319V155.134C264.994 157.138 263.369 158.763 261.364 158.763H103.462C101.457 158.763 99.832 157.138 99.832 155.134V41.7319C99.832 39.7277 101.457 38.103 103.462 38.103Z" fill="#EFF4FB"/>
<path opacity="0.5" fill-rule="evenodd" clip-rule="evenodd" d="M124.336 51.7112H240.504C243.511 51.7112 245.949 54.1482 245.949 57.1545V130.639H118.891V57.1545C118.891 54.1482 121.329 51.7112 124.336 51.7112Z" fill="white"/>
<path d="M167.48 98.0652H193.134C198.02 98.0652 202.82 99.3483 207.054 101.786C211.199 104.173 214.254 108.076 215.573 112.673L220.493 129.818H144.258L148.778 113.453C149.95 109.211 152.34 105.406 155.653 102.508C158.927 99.6438 163.129 98.0652 167.48 98.0652Z" fill="#55A55C"/>
<path d="M191.141 82.3809C194.258 78.6984 194.91 75.6485 193.096 73.2311C193.574 70.0378 192.703 67.8701 190.484 66.7279C187.157 65.0147 181.062 69.176 177.473 69.176C173.883 69.176 170.809 70.1773 170.809 74.9965C170.809 79.8156 174.026 87.0026 175.749 89.2016L191.141 82.3809Z" fill="#CB6229"/>
<path d="M191.642 75.0558L192.047 89.4306C192.08 90.5977 191.567 91.7134 190.659 92.4477C189.726 93.2015 188.564 93.6128 187.365 93.6128H186.393V98.7054C186.393 101.815 183.871 104.336 180.76 104.336C177.631 104.336 175.078 101.834 175.016 98.7065L174.753 85.3544C172.317 84.0365 171.312 82.6366 171.737 81.1546C172.376 78.9315 175.618 79.9024 175.993 80.9614V82.8281C175.993 83.1149 176.225 83.3474 176.512 83.3474C176.799 83.3474 177.032 83.1149 177.032 82.8281V80.8046C178.342 80.353 178.998 79.188 178.998 77.3096C178.998 74.4919 180.076 74.614 181.863 75.3885C183.65 76.1629 186.677 76.9578 188.773 76.1344C189.859 75.7079 190.675 75.2822 191.222 74.8574C191.336 74.7693 191.499 74.7898 191.587 74.9034C191.621 74.9471 191.641 75.0005 191.642 75.0558Z" fill="#ECA880"/>
<path fill-rule="evenodd" clip-rule="evenodd" d="M186.393 93.6129C184.038 93.2889 181.8 92.3994 179.677 90.9443C181.075 94.4934 183.314 96.8385 186.393 97.9795V93.6129Z" fill="#D98758"/>
<path d="M174.491 97.9739V98.5197C174.491 101.904 177.236 104.648 180.622 104.648C184.008 104.648 186.753 101.904 186.753 98.5197V98.0597" stroke="#1A8140"/>
<path d="M162.454 129.732V121.068" stroke="#1A8140"/>
<path d="M204.202 129.732V121.068" stroke="#1A8140"/>
<path d="M226.406 130.022H215.147L216.962 119.855L215.85 117.076C215.03 115.025 214.398 112.903 213.963 110.736L213.251 107.185C213.166 106.762 213.44 106.35 213.864 106.265C214.002 106.237 214.146 106.247 214.279 106.294C215.107 106.587 215.777 107.211 216.127 108.017L217.544 111.279L217.95 99.5069C217.971 98.9053 218.465 98.4282 219.067 98.4282C219.68 98.4282 220.193 98.8925 220.254 99.5022L221.006 107.014L221.304 98.3104C221.327 97.6197 221.894 97.072 222.585 97.072C223.279 97.072 223.849 97.6177 223.879 98.3099L224.247 106.754L225.089 99.473C225.157 98.8776 225.662 98.4282 226.261 98.4282C226.843 98.4282 227.314 98.8991 227.314 99.4799V106.754L227.975 102.475C228.04 102.054 228.402 101.743 228.828 101.743C229.227 101.743 229.55 102.066 229.55 102.465C229.55 102.471 229.55 102.477 229.55 102.483L229.219 115.489C229.171 117.384 228.52 119.214 227.362 120.715L226.406 130.022Z" fill="#ECA880"/>
<path d="M217.536 110.995C221.03 112.429 222.777 114.691 222.777 117.781" stroke="#D98758" stroke-linecap="round"/>
<path d="M227.152 110.721C224.487 109.629 221.714 109.265 218.833 109.629" stroke="#D98758" stroke-linecap="round"/>
<path d="M221.122 109.319L220.493 102.383" stroke="#D98758" stroke-linecap="round"/>
<path d="M224.592 109.798L224.122 102.383" stroke="#D98758" stroke-linecap="round"/>
<path d="M226.919 110.558L227.152 103.342" stroke="#D98758" stroke-linecap="round"/>
<path fill-rule="evenodd" clip-rule="evenodd" d="M264.995 129.732V154.75C264.995 156.754 263.37 158.379 261.365 158.379H103.463C101.458 158.379 99.832 156.754 99.832 154.75V129.732H264.995Z" fill="#D4E1F3"/>
<path fill-rule="evenodd" clip-rule="evenodd" d="M181.973 151.505C185.983 151.505 189.234 148.256 189.234 144.247C189.234 140.239 185.983 136.99 181.973 136.99C177.964 136.99 174.713 140.239 174.713 144.247C174.713 148.256 177.964 151.505 181.973 151.505Z" fill="white"/>
<path d="M184.253 144.289C184.253 144.147 184.144 144.038 184.002 144.038C183.86 144.038 183.751 144.147 183.751 144.289C183.751 145.267 182.957 146.061 181.978 146.061C181 146.061 180.205 145.267 180.205 144.289C180.205 144.147 180.096 144.038 179.954 144.038C179.812 144.038 179.703 144.147 179.703 144.289C179.703 145.451 180.573 146.429 181.727 146.555V147.224H180.816C180.673 147.224 180.565 147.332 180.565 147.474C180.565 147.617 180.673 147.725 180.816 147.725H183.141C183.283 147.725 183.392 147.617 183.392 147.474C183.392 147.332 183.283 147.224 183.141 147.224H182.229V146.555C183.383 146.429 184.253 145.451 184.253 144.289Z" fill="#BFCFE7"/>
<path d="M181.978 140.619C181.208 140.619 180.581 141.246 180.581 142.015V144.281C180.581 145.058 181.208 145.677 181.978 145.685C182.747 145.685 183.375 145.058 183.375 144.289V142.015C183.375 141.246 182.747 140.619 181.978 140.619Z" fill="#BFCFE7"/>
<path fill-rule="evenodd" clip-rule="evenodd" d="M202.847 151.505C206.857 151.505 210.108 148.256 210.108 144.247C210.108 140.239 206.857 136.99 202.847 136.99C198.838 136.99 195.587 140.239 195.587 144.247C195.587 148.256 198.838 151.505 202.847 151.505Z" fill="#DA513E"/>
<path d="M206.103 146.159L205.049 145.105C204.673 144.729 204.033 144.88 203.882 145.369C203.769 145.707 203.393 145.895 203.054 145.82C202.302 145.632 201.285 144.654 201.097 143.864C200.984 143.525 201.21 143.149 201.549 143.036C202.038 142.886 202.189 142.246 201.812 141.87L200.758 140.816C200.457 140.553 200.006 140.553 199.742 140.816L199.027 141.531C198.312 142.284 199.102 144.278 200.871 146.046C202.64 147.814 204.635 148.642 205.388 147.89L206.103 147.175C206.366 146.874 206.366 146.422 206.103 146.159Z" fill="white"/>
<path d="M161.547 151.505C165.557 151.505 168.807 148.256 168.807 144.247C168.807 140.239 165.557 136.99 161.547 136.99C157.537 136.99 154.286 140.239 154.286 144.247C154.286 148.256 157.537 151.505 161.547 151.505Z" fill="white"/>
<path d="M162.24 142.441H158.752C158.292 142.441 157.916 142.818 157.916 143.277V146.095C157.916 146.555 158.292 146.931 158.752 146.931H162.24C162.7 146.931 163.077 146.555 163.077 146.095V143.277C163.077 142.809 162.7 142.441 162.24 142.441Z" fill="#BFCFE7"/>
<path d="M164.942 142.901C164.892 142.91 164.842 142.935 164.8 142.96L163.495 143.712V145.652L164.808 146.404C165.051 146.547 165.352 146.463 165.494 146.22C165.536 146.145 165.561 146.062 165.561 145.97V143.386C165.561 143.077 165.268 142.826 164.942 142.901Z" fill="#BFCFE7"/>
</g>
<defs>
<clipPath id="clip0">
<rect width="540" height="440" fill="white"/>
</clipPath>
</defs>
</svg>
